<svg t="1679899322887" class="icon" viewBox="0 0 1024 1024" version="1.1" xmlns="http://www.w3.org/2000/svg" p-id="13408" width="200" height="200"><path d="M747.35616 194.10944c0-46.44864-36.16768-84.43904-80.40448-84.43904h-330.5472c-44.2368 0-80.40448 37.9904-80.40448 84.43904v641.16736c0 12.30848 4.66944 23.6544 12.45184 32.3584 14.29504 23.6544 39.44448 39.44448 67.95264 39.44448h330.5472c28.48768 0 53.6576-15.7696 67.93216-39.424 7.7824-8.64256 12.4928-19.94752 12.4928-32.3584V194.08896z m-53.59616 0v554.10688H309.59616V194.10944c0-15.48288 12.0832-28.16 26.80832-28.16h330.5472c14.7456 0 26.80832 12.67712 26.80832 28.16zM460.14464 810.2912c0-21.56544 18.30912-39.23968 40.6528-39.23968 22.3232 0 40.63232 17.67424 40.63232 39.23968 0 21.54496-18.30912 39.2192-40.6528 39.2192-22.3232 0-40.63232-17.67424-40.63232-39.2192z" fill="#cdcdcd" p-id="13409"></path></svg>