<svg t="1679222345579" class="icon" viewBox="0 0 1024 1024" version="1.1" xmlns="http://www.w3.org/2000/svg" p-id="9736" width="200" height="200"><path d="M518.111889 511.99072l6.751878 13.503755 215.516094-215.516093a157.373148 157.373148 0 0 0 0-222.331971 157.341148 157.341148 0 0 0-222.331971 0l-21.983601 21.951603-21.951602-21.951603a157.373148 157.373148 0 0 0-222.331971 0 157.341148 157.341148 0 0 0 0 222.331971L467.200812 525.430477l6.687879-13.407757h44.223198z" fill="#F83B57" p-id="9737"></path><path d="M483.648514 560.117848c-2.559954 4.575917-6.143889 12.15978-9.727824 21.951602-6.399884 17.439684-10.111817 35.071364-9.631825 52.095056 0.57599 20.99162 7.551863 39.423285 22.207597 53.631028 30.87944 29.887458 33.599391 62.078875 0.127998 93.7583-40.191272 38.04731-43.03922 94.270291-0.159997 135.965536 7.583863 7.359867 11.455792 16.351704 12.255778 27.263506 0.927983 11.999783-1.919965 25.599536-7.359867 39.263288-2.847948 7.263868-5.695897 12.799768-7.423865 15.679716a15.99971 15.99971 0 0 0 27.391503 16.5437c2.559954-4.287922 6.207887-11.327795 9.823822-20.447629 7.039872-17.759678 10.815804-35.903349 9.471828-53.439032a72.414687 72.414687 0 0 0-21.855603-47.807133c-29.343468-28.543483-27.551501-63.838843-0.127998-89.790373 47.679136-45.119182 43.263216-98.238219 0.127998-139.997462-8.159852-7.903857-12.15978-18.367667-12.479774-31.48743-0.319994-12.383776 2.559954-26.271524 7.679861-40.223271 2.943947-8.063854 5.855894-14.207742 7.67986-17.471683a15.99971 15.99971 0 0 0-27.999492-15.487719z" fill="#4FCAC3" p-id="9738"></path><path d="M540.479484 479.9913h-88.958388l-23.999565 95.99826h136.957518z" fill="#F83B57" p-id="9739"></path><path d="M432.00145 511.99072h127.99768a15.99971 15.99971 0 1 0 0-31.99942h-127.99768a15.99971 15.99971 0 1 0 0 31.99942z" fill="#4FCAC3" p-id="9740"></path></svg>