<svg t="1679124090518" class="icon" viewBox="0 0 1024 1024" version="1.1" xmlns="http://www.w3.org/2000/svg" p-id="3087" width="200" height="200"><path d="M557.903448 441.37931h-300.137931v63.558621h300.137931zM257.765517 568.496552h158.896552v63.55862h-158.896552zM257.765517 314.262069h504.937931v63.558621h-504.937931z" p-id="3088" fill="#707070"></path><path d="M889.82069 0h-755.64138c-35.310345 0-63.558621 28.248276-63.55862 63.558621v896.882758c0 35.310345 28.248276 63.558621 63.55862 63.558621h296.606897v-74.151724h-286.013793V70.62069h737.986207v462.565517h70.620689v-469.627586c0-35.310345-28.248276-63.558621-63.55862-63.558621z" p-id="3089" fill="#707070"></path><path d="M261.296552 183.613793h504.937931v63.558621h-504.937931zM706.206897 787.42069h-84.744828v77.682758h-91.806897v70.62069h91.806897v88.275862h84.744828v-77.682759h247.172413v-70.620689h-247.172413z" p-id="3090" fill="#4e63dd"></path><path d="M773.296552 600.275862v77.682759h-243.64138v70.620689h243.64138v77.682759h81.213793v-77.682759h88.275862v-70.620689h-88.275862V600.275862z" p-id="3091" fill="#4e63dd"></path></svg>