<svg t="1679123984369" class="icon" viewBox="0 0 1024 1024" version="1.1" xmlns="http://www.w3.org/2000/svg" p-id="2630" width="200" height="200"><path d="M254.293333 177.493333h488.106667v61.44h-488.106667zM250.88 303.786667h488.106667v61.44h-488.106667zM250.88 426.666667v61.44h221.866667v-61.44h-221.866667zM250.88 549.546667h119.466667v61.44h-119.466667z" p-id="2631" fill="#707070"></path><path d="M138.24 71.68h713.386667v447.146667h68.266666v-453.973334c0-34.133333-27.306667-61.44-61.44-61.44h-730.453333c-34.133333 0-61.44 27.306667-61.44 61.44v866.986667c0 34.133333 27.306667 61.44 61.44 61.44h286.72V921.6h-276.48v-849.92z" p-id="2632" fill="#707070"></path><path d="M735.573333 580.266667c-122.88 0-221.866667 98.986667-221.866666 221.866666s98.986667 221.866667 221.866666 221.866667 221.866667-98.986667 221.866667-221.866667-98.986667-221.866667-221.866667-221.866666z m0 389.12c-92.16 0-167.253333-75.093333-167.253333-167.253334s75.093333-167.253333 167.253333-167.253333 167.253333 75.093333 167.253334 167.253333-75.093333 167.253333-167.253334 167.253334z" p-id="2633" fill="#4e63dd"></path><path d="M759.466667 778.24V682.666667h-47.786667v95.573333h-95.573333v47.786667h95.573333v95.573333h47.786667v-95.573333h95.573333v-47.786667z" p-id="2634" fill="#4e63dd"></path></svg>