<svg t="1679124061416" class="icon" viewBox="0 0 1024 1024" version="1.1" xmlns="http://www.w3.org/2000/svg" p-id="2883" width="200" height="200"><path d="M259.482993 181.115646h498.068027v62.693878h-498.068027zM256 309.986395h498.068027v62.693877h-498.068027zM256 435.37415v62.693877h191.564626v-62.693877h-191.564626zM256 560.761905h87.07483v62.693877h-87.07483z" p-id="2884" fill="#707070"></path><path d="M141.061224 73.142857h727.945579v456.272109h69.659864v-463.238095c0-34.829932-27.863946-62.693878-62.693878-62.693878h-745.360544c-34.829932 0-62.693878 27.863946-62.693878 62.693878v884.680272c0 34.829932 27.863946 62.693878 62.693878 62.693877h292.571428v-73.142857h-282.122449v-867.265306z" p-id="2885" fill="#707070"></path><path d="M945.632653 964.789116l-97.523809-97.52381c-3.482993-3.482993-6.965986-6.965986-10.44898-6.965986 20.897959-31.346939 34.829932-69.659864 34.829932-111.455783 0-104.489796-87.07483-191.564626-191.564626-191.564625s-191.564626 87.07483-191.564626 191.564625 87.07483 191.564626 191.564626 191.564626c41.795918 0 80.108844-13.931973 111.455782-34.829932 0 3.482993 3.482993 6.965986 6.965987 10.44898l97.523809 97.523809c13.931973 13.931973 34.829932 13.931973 48.761905 0 13.931973-13.931973 13.931973-34.829932 0-48.761904z m-264.707483-76.625851c-76.62585 0-139.319728-62.693878-139.319728-139.319728s62.693878-139.319728 139.319728-139.319727 139.319728 62.693878 139.319728 139.319727-62.693878 139.319728-139.319728 139.319728z" p-id="2886" fill="#4e63dd"></path></svg>