<svg t="1679123786008" class="icon" viewBox="0 0 1024 1024" version="1.1" xmlns="http://www.w3.org/2000/svg" p-id="2426" width="200" height="200"><path d="M268.8 198.4h457.6v57.6h-457.6zM265.6 316.8h457.6v57.6h-457.6zM265.6 432h208v57.6h-208z" p-id="2427" fill="#707070"></path><path d="M160 99.2h668.8v419.2h64v-425.6c0-32-25.6-57.6-57.6-57.6h-684.8c-32 0-57.6 25.6-57.6 57.6v812.8c0 32 25.6 57.6 57.6 57.6h268.8V896h-259.2v-796.8z" p-id="2428" fill="#707070"></path><path d="M867.2 636.8c-80-80-214.4-80-294.4 0-80 80-80 214.4 0 294.4 80 80 214.4 80 294.4 0s80-214.4 0-294.4z m-256 35.2c51.2-51.2 131.2-60.8 192-22.4h-9.6l-35.2 169.6-67.2-169.6h-48l-48 224c-44.8-60.8-41.6-144 16-201.6z m220.8 220.8c-57.6 57.6-147.2 60.8-208 9.6h12.8l35.2-169.6 67.2 169.6h48l48-224c54.4 60.8 54.4 156.8-3.2 214.4zM265.6 547.2v57.6h153.6v-57.6h-153.6z" p-id="2429" fill="#4e63dd"></path></svg>