<svg t="1678430777115" class="icon" viewBox="0 0 1024 1024" version="1.1" xmlns="http://www.w3.org/2000/svg" p-id="9335" width="200" height="200"><path d="M244.8 421c20 4.1 39.6-8.8 43.7-28.8l49.6-241.9c3.5-17.1 18.8-30.3 36.2-30.3h287.1c17.5 0 32.7 13.2 36.2 30.3l49.6 241.5c3.6 17.5 19 29.7 36.2 29.7 2.5 0 5-0.1 7.5-0.7 20-4.1 32.9-23.6 28.8-43.6l-49.6-241c-5.1-24.9-18.8-53.4-38.6-69.5-19.8-16-44.7-30.7-70.2-30.7h-287c-25.5 0-50.4 14.7-70.1 30.8-19.7 16.1-33.4 41.6-38.6 66.5L216 375.8c-4.1 20.1 8.8 41.1 28.8 45.2zM788.5 510.3H238.3c-63.2 0-114.8 51.7-114.8 114.8v317.7c0 20.8 17.5 39.1 38.2 36.6 18-2.2 29.6-17.8 29.6-36.7V740.3c0-5.2 16.9 8.2 46.9 7.1H796c13 0 25.1-2.4 38.9-9.5v205c0 20.8 17.5 39.1 38.2 36.6 18-2.2 29.6-17.8 29.6-36.7V624.4c-0.1-62.8-51.5-114.1-114.2-114.1z m13.9 169.4H238.3c-25.9 0-47.1-21.2-47.1-47.1v-8.2c0-25.5 20.9-46.4 46.4-46.4h558.3c21.5 0 39 17.6 39 39v30.2c-0.1 17.9-14.6 32.5-32.5 32.5z" p-id="9336" fill="#d81e06"></path></svg>