<svg t="1677141880967" class="icon" viewBox="0 0 1024 1024" version="1.1" xmlns="http://www.w3.org/2000/svg" p-id="4966" width="200" height="200"><path d="M613.888 715.264h-41.984C448.512 715.264 348.16 614.912 348.16 491.52s99.84-223.232 223.232-223.232h41.984c123.392 0 223.232 99.84 223.232 223.232 0.512 123.392-99.328 223.744-222.72 223.744z" fill="#bfbfbf" opacity=".2" p-id="4967"></path><path d="M609.792 718.336h-41.984c-123.392 0-223.744-100.352-223.744-223.744S443.904 271.36 567.296 271.36h41.984c123.392 0 223.232 99.84 223.232 223.232 0.512 123.392-99.328 223.744-222.72 223.744z" fill="#bfbfbf" opacity=".2" p-id="4968"></path><path d="M839.68 172.032zM919.552 944.128h-132.096c-14.336 0-25.6-11.264-25.6-25.6s11.264-25.6 25.6-25.6h80.896V138.24H155.648v754.688h283.136c14.336 0 25.6 11.264 25.6 25.6s-11.264 25.6-25.6 25.6H104.448V133.12c0-25.6 20.48-46.08 46.08-46.08h722.944c25.6 0 46.08 20.48 46.08 46.08v811.008z" fill="#bfbfbf" p-id="4969"></path><path d="M625.664 944.128H509.952c-14.336 0-25.6-11.264-25.6-25.6s11.264-25.6 25.6-25.6h115.712c14.336 0 25.6 11.264 25.6 25.6s-11.776 25.6-25.6 25.6zM720.896 944.128h-26.624c-14.336 0-25.6-11.264-25.6-25.6s11.264-25.6 25.6-25.6h26.624c14.336 0 25.6 11.264 25.6 25.6s-11.264 25.6-25.6 25.6z" fill="#bfbfbf" p-id="4970"></path><path d="M718.336 250.88H305.664c-11.776 0-20.992-11.264-20.992-25.6s9.216-25.6 20.992-25.6h412.672c11.776 0 20.992 11.264 20.992 25.6s-9.728 25.6-20.992 25.6zM718.336 349.184H305.664c-11.776 0-20.992-11.264-20.992-25.6s9.216-25.6 20.992-25.6h412.672c11.776 0 20.992 11.264 20.992 25.6s-9.728 25.6-20.992 25.6z" fill="#bfbfbf" opacity=".5" p-id="4971"></path><path d="M727.04 749.568h-159.232l-9.216-45.056c-0.512-3.072-0.512-6.656 0-9.728l1.024-6.144c55.808-19.456 95.744-72.704 95.744-135.168 0-79.36-64-143.36-143.36-143.36s-143.36 64-143.36 143.36c0 58.368 35.328 109.056 85.504 131.072l2.048 10.24c0.512 3.072 0.512 6.656 0 9.728l-9.216 45.056H296.96c-6.656 0-12.288 5.632-12.288 12.288v50.176c0 6.656 5.632 12.288 12.288 12.288h430.08c6.656 0 12.288-5.632 12.288-12.288v-50.176c0-6.656-5.632-12.288-12.288-12.288z" fill="#bfbfbf" opacity=".5" p-id="4972"></path></svg>