<svg t="1677141978793" class="icon" viewBox="0 0 1024 1024" version="1.1" xmlns="http://www.w3.org/2000/svg" p-id="14273" width="200" height="200"><path d="M512 20.48c271.36 0 491.52 220.16 491.52 491.52S783.36 1003.52 512 1003.52 20.48 783.36 20.48 512 240.64 20.48 512 20.48m0-20.48C229.376 0 0 229.376 0 512s229.376 512 512 512 512-229.376 512-512S794.624 0 512 0z" fill="#bfbfbf" p-id="14274"></path><path d="M516.096 850.8416l-19.6608-9.8304C328.6016 760.9344 246.784 673.9968 246.784 575.488V264.192h46.08c62.8736 0 129.2288-24.576 197.12-73.0112l29.5936-20.48 27.2384 22.7328c42.1888 36.5568 109.2608 60.3136 199.5776 71.0656l40.0384 4.7104V575.488c0 104.3456-84.5824 193.8432-251.2896 265.9328l-19.0464 9.4208zM297.984 315.392v260.096c0 75.264 73.4208 148.6848 218.2144 218.3168C661.504 730.7264 735.232 657.3056 735.232 575.488V314.5728c-96.1536-11.9808-169.6768-38.8096-218.5216-79.6672-73.728 52.1216-147.3536 79.1552-218.7264 80.4864z" fill="#bfbfbf" p-id="14275"></path><path d="M406.528 329.728l45.056 13.312-25.6 73.728V665.6h-43.008V518.144l-16.384 40.96L327.68 542.72l78.848-212.992z m263.168 56.32v38.912H462.848v-38.912h206.848z m0-47.104v38.912H462.848v-38.912h206.848z m0 95.232v37.888H462.848v-37.888h206.848z m-1.024 47.104v35.84H461.824V481.28h206.848zM461.824 665.6V536.576h206.848V665.6H461.824z m159.744-45.056v-43.008h-112.64v43.008h112.64z" fill="#bfbfbf" p-id="14276"></path></svg>