<svg t="1677141932956" class="icon" viewBox="0 0 1024 1024" version="1.1" xmlns="http://www.w3.org/2000/svg" p-id="5181" width="200" height="200"><path d="M613.888 715.264h-41.984C448.512 715.264 348.16 614.912 348.16 491.52s99.84-223.232 223.232-223.232h41.984c123.392 0 223.232 99.84 223.232 223.232 0.512 123.392-99.328 223.744-222.72 223.744z" fill="#bfbfbf" opacity=".2" p-id="5182"></path><path d="M855.04 940.032h-51.712c-14.336 0-25.6-11.264-25.6-25.6s11.264-25.6 25.6-25.6H855.04c7.168 0 13.312-6.144 13.312-13.312V153.6c0-7.168-6.144-13.312-13.312-13.312H168.96c-7.168 0-13.312 6.144-13.312 13.312v721.92c0 7.168 6.144 13.312 13.312 13.312h236.032c14.336 0 25.6 11.264 25.6 25.6s-11.264 25.6-25.6 25.6H168.96c-35.84 0-64.512-29.184-64.512-64.512V153.6c0-35.84 29.184-64.512 64.512-64.512h686.08c35.84 0 64.512 29.184 64.512 64.512v721.92c0 35.328-29.184 64.512-64.512 64.512z" fill="#bfbfbf" p-id="5183"></path><path d="M725.504 940.032h-7.68c-14.336 0-25.6-11.264-25.6-25.6s11.264-25.6 25.6-25.6h7.68c14.336 0 25.6 11.264 25.6 25.6s-11.776 25.6-25.6 25.6zM640 940.032H485.376c-14.336 0-25.6-11.264-25.6-25.6s11.264-25.6 25.6-25.6H640c14.336 0 25.6 11.264 25.6 25.6s-11.264 25.6-25.6 25.6z" fill="#bfbfbf" p-id="5184"></path><path d="M526.848 802.304H496.64c-19.968 0-36.352-16.384-36.352-36.352V370.176c0-19.968 16.384-36.352 36.352-36.352h30.208c19.968 0 36.352 16.384 36.352 36.352v395.776c0 19.968-16.384 36.352-36.352 36.352zM337.408 802.304H307.2c-19.968 0-36.352-16.384-36.352-36.352V482.816c0-19.968 16.384-36.352 36.352-36.352h30.208c19.968 0 36.352 16.384 36.352 36.352v283.136c0 19.968-16.384 36.352-36.352 36.352zM735.744 802.304h-30.208c-19.968 0-36.352-16.384-36.352-36.352v-249.856c0-19.968 16.384-36.352 36.352-36.352h30.208c19.968 0 36.352 16.384 36.352 36.352v249.856c0 19.968-16.384 36.352-36.352 36.352z" fill="#bfbfbf" opacity=".5" p-id="5185"></path><path d="M316.416 393.728v2.048h-27.136v-2.048l8.704-1.024v-36.864l-7.168 0.512v-2.048l16.384-3.584 1.024 0.512v41.472l8.192 1.024zM355.84 384.512c0 7.68-5.632 12.288-16.384 12.288-9.728 0-14.848-4.096-14.848-10.24 0-5.12 3.584-8.704 10.24-11.264-6.144-3.072-9.216-7.168-9.216-12.8 0-7.68 6.144-12.288 14.848-12.288 9.216 0 13.824 4.608 13.824 9.728 0 4.096-2.56 7.68-9.216 10.24 7.168 4.096 10.752 8.192 10.752 14.336z m-19.968-8.192c-2.56 2.56-3.584 5.12-3.584 8.704 0 6.656 2.56 9.728 7.68 9.728 4.608 0 6.656-2.56 6.656-7.168 0-4.608-2.048-7.68-10.752-11.264z m-2.048-16.896c0 3.584 2.048 6.656 10.24 10.752 2.048-3.072 3.072-6.144 3.072-9.216 0-4.608-2.56-8.192-6.144-8.192-4.096 0-7.168 2.56-7.168 6.656zM714.24 426.496v2.048h-27.136v-2.048l8.704-1.024V389.12l-7.168 0.512v-2.048l16.896-3.584 1.024 0.512v41.472l7.68 0.512zM751.616 385.024c-11.264 2.56-18.432 9.728-19.968 19.968 2.56-2.56 6.144-3.584 9.728-3.584 7.68 0 12.288 5.632 12.288 13.824 0 8.704-6.144 14.848-15.872 14.848-10.24 0-16.896-6.656-16.896-18.432 0-14.336 12.288-25.6 29.696-27.648l1.024 1.024z m-7.168 30.208c0-7.168-2.048-10.752-6.656-10.752-2.048 0-4.608 0.512-6.144 2.56v2.56c0 12.288 3.072 17.92 7.168 17.92 3.072 0 5.632-3.584 5.632-12.288z" fill="#bfbfbf" p-id="5186"></path><path d="M508.416 275.456v7.68h-30.72v-5.632c3.584-3.584 7.168-7.168 9.728-10.24 7.168-7.168 9.728-11.264 9.728-17.92 0-5.632-3.072-9.216-7.68-9.216h-2.56l-1.536 6.144c-0.512 4.096-2.56 5.12-4.608 5.12-1.536 0-3.072-1.024-4.096-2.56 0.512-7.168 7.68-10.752 15.872-10.752 9.728 0 14.336 5.12 14.336 12.288 0 6.144-5.12 11.776-16.896 19.456-2.048 1.536-4.608 3.584-7.68 5.632h26.112zM543.744 239.104c-11.264 2.56-18.432 9.728-19.968 19.968 2.56-2.56 6.144-3.584 9.728-3.584 7.68 0 12.288 5.632 12.288 13.824 0 8.704-6.144 14.848-15.872 14.848-10.24 0-16.896-6.656-16.896-18.432 0-14.336 12.288-25.6 29.696-27.648l1.024 1.024z m-7.168 30.72c0-7.168-2.048-10.752-6.656-10.752-2.048 0-4.608 0.512-6.144 2.56v2.56c0 12.288 3.072 17.92 7.168 17.92 3.072-0.512 5.632-4.096 5.632-12.288z" fill="#bfbfbf" p-id="5187"></path></svg>