<svg t="1677131756672" class="icon" viewBox="0 0 1024 1024" version="1.1" xmlns="http://www.w3.org/2000/svg" p-id="4071" width="200" height="200"><path d="M512 0a512 512 0 1 0 512 512A512 512 0 0 0 512 0z m289.0496 327.3984L454.528 770.4576a19.1488 19.1488 0 0 1-15.0528 7.3472h-111.4624a19.2 19.2 0 0 1-19.1744-19.1488v-354.816a19.1744 19.1744 0 0 0-19.1488-19.1488H234.6752a19.1488 19.1488 0 0 1-19.0976-19.1488v-50.048a19.1232 19.1232 0 0 1 19.2-19.0464h181.5552a19.1488 19.1488 0 0 1 19.1488 19.1488v153.344a19.1488 19.1488 0 0 0 33.792 12.3648l150.3488-178.048a19.2256 19.2256 0 0 1 14.6432-6.8096h151.68a19.1488 19.1488 0 0 1 15.104 30.9504z" fill="#CAA36E" p-id="4072"></path></svg>