<svg t="1677141029630" class="icon" viewBox="0 0 1024 1024" version="1.1" xmlns="http://www.w3.org/2000/svg" p-id="3920" width="200" height="200"><path d="M613.888 715.264h-41.984C448.512 715.264 348.16 614.912 348.16 491.52s99.84-223.232 223.232-223.232h41.984c123.392 0 223.232 99.84 223.232 223.232 0.512 123.392-99.328 223.744-222.72 223.744z" fill="#bfbfbf" opacity=".2" p-id="3921"></path><path d="M839.68 322.56zM438.784 736.256H155.648V288.768h638.976v-51.2H150.528c-25.6 0-46.08 20.48-46.08 46.08v503.808h334.336c14.336 0 25.6-11.264 25.6-25.6s-11.264-25.6-25.6-25.6z" fill="#bfbfbf" p-id="3922"></path><path d="M794.624 288.768h73.728v447.488h-80.896c-14.336 0-25.6 11.264-25.6 25.6s11.264 25.6 25.6 25.6h132.096V283.648c0-25.6-20.48-46.08-46.08-46.08h-78.848M625.664 787.456H509.952c-14.336 0-25.6-11.264-25.6-25.6s11.264-25.6 25.6-25.6h115.712c14.336 0 25.6 11.264 25.6 25.6s-11.776 25.6-25.6 25.6zM720.896 787.456h-26.624c-14.336 0-25.6-11.264-25.6-25.6s11.264-25.6 25.6-25.6h26.624c14.336 0 25.6 11.264 25.6 25.6s-11.264 25.6-25.6 25.6z" fill="#bfbfbf" p-id="3923"></path><path d="M868.352 761.856c-8.192 0-15.872-3.584-20.992-10.752L686.592 527.36c-8.192-11.264-5.632-27.648 5.632-35.84 11.264-8.192 27.648-5.632 35.84 5.632l160.768 223.744c8.192 11.264 5.632 27.648-5.632 35.84-4.608 3.584-9.728 5.12-14.848 5.12zM138.752 773.12c-5.632 0-11.264-2.048-15.872-5.632-10.752-8.704-12.8-25.088-3.584-35.84l177.152-218.624-178.176-223.232c-8.704-11.264-7.168-27.136 4.096-35.84 11.264-8.704 27.136-7.168 35.84 4.096L348.672 496.64c7.68 9.216 7.68 22.528 0 32.256l-190.464 235.008c-4.608 5.632-12.288 9.216-19.456 9.216z" fill="#bfbfbf" p-id="3924"></path><path d="M691.2 538.112H328.704c-14.336 0-25.6-11.264-25.6-25.6s11.264-25.6 25.6-25.6h350.72l186.368-229.376c8.704-10.752 25.088-12.8 35.84-3.584 10.752 8.704 12.8 25.088 3.584 35.84l-194.048 238.592c-4.608 6.144-11.776 9.728-19.968 9.728z" fill="#bfbfbf" p-id="3925"></path></svg>