<svg t="1678902328880" class="icon" viewBox="0 0 1024 1024" version="1.1" xmlns="http://www.w3.org/2000/svg" p-id="1052" width="200" height="200"><path d="M175.88 393.07c0-0.59 0.01-1.17 0.03-1.72C182.12 178.26 411.3 124 513.33 124s331.22 54.26 337.42 267.35c0.02 0.73 0.03 1.51 0.02 2.33-0.13 11.23-7.91 20.7-18.11 22.05-18.72 2.48-34.46 8.54-47.09 18.18-15.08 11.51-33.14 34.08-33.55 76.27-0.22 23.2-4.51 38.45-12.74 45.32-18.7 15.61-68.93 0.5-113.55-11.54-67.59-18.24-146.95-22.82-224.17 0-44.37 13.11-94.85 27.14-113.55 11.54-8.23-6.87-12.52-22.12-12.74-45.32-0.41-42.19-18.47-64.76-33.55-76.27-12.75-9.73-28.67-15.82-47.61-18.25-10.41-1.34-18.27-11.13-18.23-22.59zM903.16 483c-4.88-7.36-12.3-12.25-20.52-13.61-0.04-0.01-0.07-0.01-0.11-0.02-31.77-5.23-56.49-2.59-69.6 7.44-5.51 4.21-12.86 12.31-13.07 33.91-0.39 40.71-10.71 68.95-31.54 86.34-15.29 12.76-33.91 17.54-54.73 17.54-29.91 0-64.45-9.47-99.96-20.05-58.65-17.47-126.58-18.86-199.95 0-60.77 15.62-117.44 33.61-154.69 2.51-20.83-17.39-31.15-45.63-31.54-86.34-0.21-21.62-7.57-29.72-13.09-33.93-13.23-10.1-38.21-12.69-70.33-7.3l-0.16 0.03c-8.22 1.39-15.64 6.31-20.5 13.69-21.39 32.48-24.21 95.17-6.29 180.66 17.01 81.15 33.33 117.93 40.95 138.49 6.49 17.51 14.05 46.95 46.47 46.95h49.59v25.81c0 13.81 11.19 25 25 25s25-11.19 25-25v-25.81h413.36v25.81c0 13.81 11.19 25 25 25s25-11.19 25-25v-25.81h54.72c41.92 0 39.98-29.44 46.47-46.95 7.62-20.56 23.94-57.34 40.95-138.49 17.96-85.67 15.09-148.45-6.43-180.87z" p-id="1053" fill="#d6d4d4"></path></svg>